{
  "accessors": [
    {
      "bufferView": 2,
      "componentType": 5126,
      "count": 79,
      "max": [
        4,
        8.4078264236450195,
        3.8042261600494385
      ],
      "min": [
        -3.3086237907409668,
        0,
        -3.8042261600494385
      ],
      "type": "VEC3"
    },
    {
      "bufferView": 2,
      "byteOffset": 948,
      "componentType": 5126,
      "count": 79,
      "max": [
        0.8090171217918396,
        1,
        0.95105659961700439
      ],
      "min": [
        -1,
        -1,
        -0.95105659961700439
      ],
      "type": "VEC3"
    },
    {
      "bufferView": 3,
      "componentType": 5126,
      "count": 79,
      "max": [
        0,
        0,
        0,
        1
      ],
      "min": [
        0,
        0,
        0,
        1
      ],
      "type": "VEC4"
    },
    {
      "bufferView": 1,
      "componentType": 5126,
      "count": 79,
      "max": [
        0.47001823782920837,
        0.98174649477005005
      ],
      "min": [
        0.010018237866461277,
        0.34174644947052002
      ],
      "type": "VEC2"
    },
    {
      "bufferView": 0,
      "componentType": 5125,
      "count": 153,
      "max": [
        78
      ],
      "min": [
        0
      ],
      "type": "SCALAR"
    }
  ],
  "asset": {
    "extras": {
      "author": "Islide (https://sketchfab.com/Islide)",
      "license": "CC-BY-4.0 (http://creativecommons.org/licenses/by/4.0/)",
      "source": "https://sketchfab.com/3d-models/mayonnaise-low-poly-5f27ab3485764c409a924b6f696f4687",
      "title": "Mayonnaise [Low Poly]"
    },
    "generator": "Sketchfab-7.13.0",
    "version": "2.0"
  },
  "bufferViews": [
    {
      "buffer": 0,
      "byteLength": 612,
      "byteOffset": 0,
      "name": "floatBufferViews",
      "target": 34963
    },
    {
      "buffer": 0,
      "byteLength": 632,
      "byteOffset": 612,
      "byteStride": 8,
      "name": "floatBufferViews",
      "target": 34962
    },
    {
      "buffer": 0,
      "byteLength": 1896,
      "byteOffset": 1244,
      "byteStride": 12,
      "name": "floatBufferViews",
      "target": 34962
    },
    {
      "buffer": 0,
      "byteLength": 1264,
      "byteOffset": 3140,
      "byteStride": 16,
      "name": "floatBufferViews",
      "target": 34962
    }
  ],
  "buffers": [
    {
      "byteLength": 4404,
      "uri": "scene.bin"
    }
  ],
  "images": [
    {
      "uri": "textures/RGB_texture_baseColor.png"
    }
  ],
  "materials": [
    {
      "doubleSided": true,
      "emissiveFactor": [
        0,
        0,
        0
      ],
      "name": "RGB_texture",
      "pbrMetallicRoughness": {
        "baseColorFactor": [
          1,
          1,
          1,
          1
        ],
        "baseColorTexture": {
          "index": 0,
          "texCoord": 0
        },
        "metallicFactor": 0,
        "roughnessFactor": 0.59999999999999998
      }
    }
  ],
  "meshes": [
    {
      "name": "Mayonnaise_01_RGB_texture_0",
      "primitives": [
        {
          "attributes": {
            "NORMAL": 1,
            "POSITION": 0,
            "TANGENT": 2,
            "TEXCOORD_0": 3
          },
          "indices": 4,
          "material": 0,
          "mode": 4
        }
      ]
    }
  ],
  "nodes": [
    {
      "children": [
        1
      ],
      "name": "RootNode (gltf orientation matrix)",
      "rotation": [
        -0.70710678118654746,
        -0,
        -0,
        0.70710678118654757
      ]
    },
    {
      "children": [
        2
      ],
      "matrix": [
        2.2204460492503131e-16,
        1,
        1.2325951644078309e-32,
        0,
        -1,
        2.2204460492503131e-16,
        -1.6081226229577292e-16,
        0,
        -1.6081226229577292e-16,
        1.2325951644078309e-32,
        1,
        0,
        -0.34569287300109863,
        0.3456885814666748,
        8.8817841970012523e-16,
        1
      ],
      "name": "RootNode (model correction matrix)"
    },
    {
      "children": [
        3
      ],
      "matrix": [
        1,
        0,
        0,
        0,
        0,
        0,
        1,
        0,
        0,
        -1,
        0,
        0,
        0,
        0,
        0,
        1
      ],
      "name": "3931143450f6434fac6e46b1c97c3705.fbx"
    },
    {
      "children": [
        4
      ],
      "name": "RootNode"
    },
    {
      "children": [
        5
      ],
      "matrix": [
        -1,
        -1.2246467991473535e-16,
        1.224646799147353e-16,
        0,
        -1.2246467991473535e-16,
        1,
        -1.2246467991473535e-16,
        0,
        -1.224646799147353e-16,
        -1.2246467991473535e-16,
        -1,
        0,
        0,
        0,
        0,
        1
      ],
      "name": "Mayonnaise_01"
    },
    {
      "mesh": 0,
      "name": "Mayonnaise_01_RGB_texture_0"
    }
  ],
  "samplers": [
    {
      "magFilter": 9729,
      "minFilter": 9987,
      "wrapS": 10497,
      "wrapT": 10497
    }
  ],
  "scene": 0,
  "scenes": [
    {
      "name": "OSG_Scene",
      "nodes": [
        0
      ]
    }
  ],
  "textures": [
    {
      "sampler": 0,
      "source": 0
    }
  ]
}

