{
  "accessors": [
    {
      "bufferView": 2,
      "componentType": 5126,
      "count": 65532,
      "max": [
        239.98870849609375,
        279.23947143554688,
        215.55470275878906
      ],
      "min": [
        -110.71138763427734,
        -249.96064758300781,
        64.028961181640625
      ],
      "type": "VEC3"
    },
    {
      "bufferView": 2,
      "byteOffset": 786384,
      "componentType": 5126,
      "count": 65532,
      "max": [
        0.9999123215675354,
        0.99891042709350586,
        0.99998408555984497
      ],
      "min": [
        -0.99991768598556519,
        -0.99942278861999512,
        -0.99999916553497314
      ],
      "type": "VEC3"
    },
    {
      "bufferView": 3,
      "componentType": 5126,
      "count": 65532,
      "max": [
        0.94618213176727295,
        0.81639379262924194,
        0.99837952852249146,
        1
      ],
      "min": [
        -0.94790816307067871,
        -0.99999982118606567,
        -0.99002289772033691,
        1
      ],
      "type": "VEC4"
    },
    {
      "bufferView": 1,
      "componentType": 5126,
      "count": 65532,
      "max": [
        0.76904600858688354,
        0.99637699127197266
      ],
      "min": [
        0.0036230001132935286,
        0.66747802495956421
      ],
      "type": "VEC2"
    },
    {
      "bufferView": 0,
      "componentType": 5125,
      "count": 384216,
      "max": [
        65531
      ],
      "min": [
        0
      ],
      "type": "SCALAR"
    },
    {
      "bufferView": 2,
      "byteOffset": 1572768,
      "componentType": 5126,
      "count": 65532,
      "max": [
        280.05398559570312,
        251.0057373046875,
        237.61346435546875
      ],
      "min": [
        -196.36524963378906,
        -250.04487609863281,
        62.973724365234375
      ],
      "type": "VEC3"
    },
    {
      "bufferView": 2,
      "byteOffset": 2359152,
      "componentType": 5126,
      "count": 65532,
      "max": [
        0.99988794326782227,
        0.99846857786178589,
        0.99999654293060303
      ],
      "min": [
        -0.99998855590820312,
        -0.99817168712615967,
        -0.99999576807022095
      ],
      "type": "VEC3"
    },
    {
      "bufferView": 3,
      "byteOffset": 1048512,
      "componentType": 5126,
      "count": 65532,
      "max": [
        0.99999958276748657,
        0.96982079744338989,
        0.99877393245697021,
        1
      ],
      "min": [
        -0.99988788366317749,
        -0.99864506721496582,
        -0.99993371963500977,
        1
      ],
      "type": "VEC4"
    },
    {
      "bufferView": 1,
      "byteOffset": 524256,
      "componentType": 5126,
      "count": 65532,
      "max": [
        0.92058002948760986,
        0.99637699127197266
      ],
      "min": [
        0.19204400479793549,
        0.40046700835227966
      ],
      "type": "VEC2"
    },
    {
      "bufferView": 0,
      "byteOffset": 1536864,
      "componentType": 5125,
      "count": 378609,
      "max": [
        65531
      ],
      "min": [
        0
      ],
      "type": "SCALAR"
    },
    {
      "bufferView": 2,
      "byteOffset": 3145536,
      "componentType": 5126,
      "count": 65532,
      "max": [
        281.04983520507812,
        291.412353515625,
        235.51345825195312
      ],
      "min": [
        -238.81141662597656,
        -257.58355712890625,
        85.94537353515625
      ],
      "type": "VEC3"
    },
    {
      "bufferView": 2,
      "byteOffset": 3931920,
      "componentType": 5126,
      "count": 65532,
      "max": [
        0.99998253583908081,
        0.99999368190765381,
        0.99999731779098511
      ],
      "min": [
        -0.99984925985336304,
        -0.99998325109481812,
        -0.99987620115280151
      ],
      "type": "VEC3"
    },
    {
      "bufferView": 3,
      "byteOffset": 2097024,
      "componentType": 5126,
      "count": 65532,
      "max": [
        0.99694979190826416,
        0.99999910593032837,
        0.99995094537734985,
        1
      ],
      "min": [
        -0.98023784160614014,
        -0.99959564208984375,
        -0.99906080961227417,
        1
      ],
      "type": "VEC4"
    },
    {
      "bufferView": 1,
      "byteOffset": 1048512,
      "componentType": 5126,
      "count": 65532,
      "max": [
        0.95284700393676758,
        0.99637699127197266
      ],
      "min": [
        0.22103199362754822,
        0.2429250031709671
      ],
      "type": "VEC2"
    },
    {
      "bufferView": 0,
      "byteOffset": 3051300,
      "componentType": 5125,
      "count": 375723,
      "max": [
        65531
      ],
      "min": [
        0
      ],
      "type": "SCALAR"
    },
    {
      "bufferView": 2,
      "byteOffset": 4718304,
      "componentType": 5126,
      "count": 65532,
      "max": [
        290.38870239257812,
        257.53945922851562,
        233.11410522460938
      ],
      "min": [
        -228.76319885253906,
        -257.60406494140625,
        70.31341552734375
      ],
      "type": "VEC3"
    },
    {
      "bufferView": 2,
      "byteOffset": 5504688,
      "componentType": 5126,
      "count": 65532,
      "max": [
        0.99986332654953003,
        0.99997484683990479,
        0.99993836879730225
      ],
      "min": [
        -0.99998313188552856,
        -0.99999111890792847,
        -0.99999773502349854
      ],
      "type": "VEC3"
    },
    {
      "bufferView": 3,
      "byteOffset": 3145536,
      "componentType": 5126,
      "count": 65532,
      "max": [
        0.99982661008834839,
        0.9949679970741272,
        0.99999165534973145,
        1
      ],
      "min": [
        -0.99973928928375244,
        -0.99984157085418701,
        -0.99986076354980469,
        -1
      ],
      "type": "VEC4"
    },
    {
      "bufferView": 1,
      "byteOffset": 1572768,
      "componentType": 5126,
      "count": 65532,
      "max": [
        0.80311799049377441,
        0.68475800752639771
      ],
      "min": [
        0.061599001288414001,
        0.012578999623656273
      ],
      "type": "VEC2"
    },
    {
      "bufferView": 0,
      "byteOffset": 4554192,
      "componentType": 5125,
      "count": 373659,
      "max": [
        65531
      ],
      "min": [
        0
      ],
      "type": "SCALAR"
    },
    {
      "bufferView": 2,
      "byteOffset": 6291072,
      "componentType": 5126,
      "count": 65532,
      "max": [
        309.96173095703125,
        281.0343017578125,
        245.96517944335938
      ],
      "min": [
        -236.74147033691406,
        -257.80929565429688,
        70.31341552734375
      ],
      "type": "VEC3"
    },
    {
      "bufferView": 2,
      "byteOffset": 7077456,
      "componentType": 5126,
      "count": 65532,
      "max": [
        0.99996322393417358,
        0.99977278709411621,
        0.99999886751174927
      ],
      "min": [
        -0.99998390674591064,
        -0.99999719858169556,
        -0.99998807907104492
      ],
      "type": "VEC3"
    },
    {
      "bufferView": 3,
      "byteOffset": 4194048,
      "componentType": 5126,
      "count": 65532,
      "max": [
        0.99983179569244385,
        0.99836438894271851,
        0.99998074769973755,
        1
      ],
      "min": [
        -0.99998193979263306,
        -0.9999767541885376,
        -0.99990689754486084,
        -1
      ],
      "type": "VEC4"
    },
    {
      "bufferView": 1,
      "byteOffset": 2097024,
      "componentType": 5126,
      "count": 65532,
      "max": [
        0.94503599405288696,
        0.78983801603317261
      ],
      "min": [
        0.068846002221107483,
        0.0046799997799098492
      ],
      "type": "VEC2"
    },
    {
      "bufferView": 0,
      "byteOffset": 6048828,
      "componentType": 5125,
      "count": 375153,
      "max": [
        65531
      ],
      "min": [
        0
      ],
      "type": "SCALAR"
    },
    {
      "bufferView": 2,
      "byteOffset": 7863840,
      "componentType": 5126,
      "count": 65532,
      "max": [
        295.98483276367188,
        281.77386474609375,
        248.2093505859375
      ],
      "min": [
        -247.56910705566406,
        -251.86228942871094,
        87.113418579101562
      ],
      "type": "VEC3"
    },
    {
      "bufferView": 2,
      "byteOffset": 8650224,
      "componentType": 5126,
      "count": 65532,
      "max": [
        0.99996894598007202,
        0.99988347291946411,
        0.99998122453689575
      ],
      "min": [
        -0.99982208013534546,
        -0.99999958276748657,
        -0.99994522333145142
      ],
      "type": "VEC3"
    },
    {
      "bufferView": 3,
      "byteOffset": 5242560,
      "componentType": 5126,
      "count": 65532,
      "max": [
        0.99997836351394653,
        0.9996827244758606,
        0.99997597932815552,
        1
      ],
      "min": [
        -0.99999761581420898,
        -0.99987822771072388,
        -0.99999129772186279,
        -1
      ],
      "type": "VEC4"
    },
    {
      "bufferView": 1,
      "byteOffset": 2621280,
      "componentType": 5126,
      "count": 65532,
      "max": [
        0.99249100685119629,
        0.99637699127197266
      ],
      "min": [
        0.0072470000013709068,
        0.0039260000921785831
      ],
      "type": "VEC2"
    },
    {
      "bufferView": 0,
      "byteOffset": 7549440,
      "componentType": 5125,
      "count": 357018,
      "max": [
        65531
      ],
      "min": [
        0
      ],
      "type": "SCALAR"
    },
    {
      "bufferView": 2,
      "byteOffset": 9436608,
      "componentType": 5126,
      "count": 34256,
      "max": [
        282.68869018554688,
        241.73811340332031,
        248.7366943359375
      ],
      "min": [
        -190.53941345214844,
        -251.80755615234375,
        92.713424682617188
      ],
      "type": "VEC3"
    },
    {
      "bufferView": 2,
      "byteOffset": 9847680,
      "componentType": 5126,
      "count": 34256,
      "max": [
        0.99990427494049072,
        0.99988514184951782,
        0.99997955560684204
      ],
      "min": [
        -0.99998390674591064,
        -0.99996358156204224,
        -0.99999690055847168
      ],
      "type": "VEC3"
    },
    {
      "bufferView": 3,
      "byteOffset": 6291072,
      "componentType": 5126,
      "count": 34256,
      "max": [
        0.99993515014648438,
        0.99999934434890747,
        0.99994897842407227,
        1
      ],
      "min": [
        -0.99999493360519409,
        -0.99952298402786255,
        -0.99997270107269287,
        -1
      ],
      "type": "VEC4"
    },
    {
      "bufferView": 1,
      "byteOffset": 3145536,
      "componentType": 5126,
      "count": 34256,
      "max": [
        0.97470998764038086,
        0.9746360182762146
      ],
      "min": [
        0.0036230001132935286,
        0.00355300004594028
      ],
      "type": "VEC2"
    },
    {
      "bufferView": 0,
      "byteOffset": 8977512,
      "componentType": 5125,
      "count": 155622,
      "max": [
        34255
      ],
      "min": [
        0
      ],
      "type": "SCALAR"
    }
  ],
  "asset": {
    "extras": {
      "author": "UNLMeat Collections (https://sketchfab.com/UNLMeats)",
      "license": "CC-BY-4.0 (http://creativecommons.org/licenses/by/4.0/)",
      "source": "https://sketchfab.com/models/bfb780cef07c42648b754ab97c409012",
      "title": "IMPs, 121 Beef Plate"
    },
    "generator": "Sketchfab-3.43.3",
    "version": "2.0"
  },
  "bufferViews": [
    {
      "buffer": 0,
      "byteLength": 9600000,
      "byteOffset": 0,
      "name": "floatBufferViews",
      "target": 34963
    },
    {
      "buffer": 0,
      "byteLength": 3419584,
      "byteOffset": 9600000,
      "byteStride": 8,
      "name": "floatBufferViews",
      "target": 34962
    },
    {
      "buffer": 0,
      "byteLength": 10258752,
      "byteOffset": 13019584,
      "byteStride": 12,
      "name": "floatBufferViews",
      "target": 34962
    },
    {
      "buffer": 0,
      "byteLength": 6839168,
      "byteOffset": 23278336,
      "byteStride": 16,
      "name": "floatBufferViews",
      "target": 34962
    }
  ],
  "buffers": [
    {
      "byteLength": 30117504,
      "uri": "scene.bin"
    }
  ],
  "extensionsUsed": [
    "KHR_materials_unlit"
  ],
  "images": [
    {
      "uri": "textures/material_0_baseColor.jpeg"
    }
  ],
  "materials": [
    {
      "doubleSided": true,
      "emissiveFactor": [
        0,
        0,
        0
      ],
      "extensions": {
        "KHR_materials_unlit": {}
      },
      "name": "material_0",
      "pbrMetallicRoughness": {
        "baseColorFactor": [
          1,
          1,
          1,
          1
        ],
        "baseColorTexture": {
          "index": 0,
          "texCoord": 0
        },
        "metallicFactor": 0,
        "roughnessFactor": 1
      }
    }
  ],
  "meshes": [
    {
      "primitives": [
        {
          "attributes": {
            "NORMAL": 1,
            "POSITION": 0,
            "TANGENT": 2,
            "TEXCOORD_0": 3
          },
          "indices": 4,
          "material": 0,
          "mode": 4
        }
      ]
    },
    {
      "primitives": [
        {
          "attributes": {
            "NORMAL": 6,
            "POSITION": 5,
            "TANGENT": 7,
            "TEXCOORD_0": 8
          },
          "indices": 9,
          "material": 0,
          "mode": 4
        }
      ]
    },
    {
      "primitives": [
        {
          "attributes": {
            "NORMAL": 11,
            "POSITION": 10,
            "TANGENT": 12,
            "TEXCOORD_0": 13
          },
          "indices": 14,
          "material": 0,
          "mode": 4
        }
      ]
    },
    {
      "primitives": [
        {
          "attributes": {
            "NORMAL": 16,
            "POSITION": 15,
            "TANGENT": 17,
            "TEXCOORD_0": 18
          },
          "indices": 19,
          "material": 0,
          "mode": 4
        }
      ]
    },
    {
      "primitives": [
        {
          "attributes": {
            "NORMAL": 21,
            "POSITION": 20,
            "TANGENT": 22,
            "TEXCOORD_0": 23
          },
          "indices": 24,
          "material": 0,
          "mode": 4
        }
      ]
    },
    {
      "primitives": [
        {
          "attributes": {
            "NORMAL": 26,
            "POSITION": 25,
            "TANGENT": 27,
            "TEXCOORD_0": 28
          },
          "indices": 29,
          "material": 0,
          "mode": 4
        }
      ]
    },
    {
      "primitives": [
        {
          "attributes": {
            "NORMAL": 31,
            "POSITION": 30,
            "TANGENT": 32,
            "TEXCOORD_0": 33
          },
          "indices": 34,
          "material": 0,
          "mode": 4
        }
      ]
    }
  ],
  "nodes": [
    {
      "children": [
        1
      ],
      "name": "RootNode (gltf orientation matrix)",
      "rotation": [
        -0.70710678118654746,
        -0,
        -0,
        0.70710678118654757
      ]
    },
    {
      "children": [
        2
      ],
      "name": "RootNode (model correction matrix)"
    },
    {
      "children": [
        3,
        4,
        5,
        6,
        7,
        8,
        9
      ],
      "name": "121.obj.cleaner.materialmerger.gles"
    },
    {
      "mesh": 0,
      "name": ""
    },
    {
      "mesh": 1,
      "name": ""
    },
    {
      "mesh": 2,
      "name": ""
    },
    {
      "mesh": 3,
      "name": ""
    },
    {
      "mesh": 4,
      "name": ""
    },
    {
      "mesh": 5,
      "name": ""
    },
    {
      "mesh": 6,
      "name": ""
    }
  ],
  "samplers": [
    {
      "magFilter": 9729,
      "minFilter": 9987,
      "wrapS": 10497,
      "wrapT": 10497
    }
  ],
  "scene": 0,
  "scenes": [
    {
      "name": "OSG_Scene",
      "nodes": [
        0
      ]
    }
  ],
  "textures": [
    {
      "sampler": 0,
      "source": 0
    }
  ]
}

