{
  "accessors": [
    {
      "bufferView": 2,
      "componentType": 5126,
      "count": 65532,
      "max": [
        5762.9990234375,
        5470.6962890625,
        3170.93212890625
      ],
      "min": [
        -5601.7822265625,
        -5573.16015625,
        -967.0419921875
      ],
      "type": "VEC3"
    },
    {
      "bufferView": 2,
      "byteOffset": 786384,
      "componentType": 5126,
      "count": 65532,
      "max": [
        0.99995774030685425,
        0.99964380264282227,
        0.99999397993087769
      ],
      "min": [
        -0.99993842840194702,
        -0.99957776069641113,
        -0.99733048677444458
      ],
      "type": "VEC3"
    },
    {
      "bufferView": 1,
      "componentType": 5126,
      "count": 65532,
      "max": [
        0.90582001209259033,
        0.99998998641967773
      ],
      "min": [
        -0.0010199999669566751,
        0.0014900000533089042
      ],
      "type": "VEC2"
    },
    {
      "bufferView": 0,
      "componentType": 5125,
      "count": 72888,
      "max": [
        65531
      ],
      "min": [
        0
      ],
      "type": "SCALAR"
    },
    {
      "bufferView": 2,
      "byteOffset": 1572768,
      "componentType": 5126,
      "count": 25510,
      "max": [
        5757.5283203125,
        5543.23828125,
        3148.365234375
      ],
      "min": [
        -5717.0615234375,
        -5586.2890625,
        -927.900146484375
      ],
      "type": "VEC3"
    },
    {
      "bufferView": 2,
      "byteOffset": 1878888,
      "componentType": 5126,
      "count": 25510,
      "max": [
        0.99995774030685425,
        0.9995887279510498,
        0.99998122453689575
      ],
      "min": [
        -0.99958044290542603,
        -0.99974757432937622,
        -0.99581199884414673
      ],
      "type": "VEC3"
    },
    {
      "bufferView": 1,
      "byteOffset": 524256,
      "componentType": 5126,
      "count": 25510,
      "max": [
        0.99935001134872437,
        0.99945002794265747
      ],
      "min": [
        0.032460000365972519,
        0.0016400000313296914
      ],
      "type": "VEC2"
    },
    {
      "bufferView": 0,
      "byteOffset": 291552,
      "componentType": 5125,
      "count": 28590,
      "max": [
        25509
      ],
      "min": [
        0
      ],
      "type": "SCALAR"
    },
    {
      "bufferView": 2,
      "byteOffset": 2185008,
      "componentType": 5126,
      "count": 168,
      "max": [
        5732.34423828125,
        5737.8369140625,
        99.2574462890625
      ],
      "min": [
        -5737.8369140625,
        -5737.8369140625,
        -1044.7164306640625
      ],
      "type": "VEC3"
    },
    {
      "bufferView": 2,
      "byteOffset": 2187024,
      "componentType": 5126,
      "count": 168,
      "max": [
        0.88103127479553223,
        0.88592791557312012,
        1
      ],
      "min": [
        -0.88602232933044434,
        -0.88593685626983643,
        -1
      ],
      "type": "VEC3"
    },
    {
      "bufferView": 1,
      "byteOffset": 728336,
      "componentType": 5126,
      "count": 168,
      "max": [
        1,
        1.0020400285720825
      ],
      "min": [
        0,
        0
      ],
      "type": "VEC2"
    },
    {
      "bufferView": 0,
      "byteOffset": 405912,
      "componentType": 5125,
      "count": 360,
      "max": [
        167
      ],
      "min": [
        0
      ],
      "type": "SCALAR"
    }
  ],
  "asset": {
    "extras": {
      "author": "ediacara (https://sketchfab.com/ediacara)",
      "license": "CC-BY-4.0 (http://creativecommons.org/licenses/by/4.0/)",
      "source": "https://sketchfab.com/3d-models/lettuce-c7d77c9d5d04446982852800242fae21",
      "title": "lettuce"
    },
    "generator": "Sketchfab-7.48.0",
    "version": "2.0"
  },
  "bufferViews": [
    {
      "buffer": 0,
      "byteLength": 407352,
      "byteOffset": 0,
      "name": "floatBufferViews",
      "target": 34963
    },
    {
      "buffer": 0,
      "byteLength": 729680,
      "byteOffset": 407352,
      "byteStride": 8,
      "name": "floatBufferViews",
      "target": 34962
    },
    {
      "buffer": 0,
      "byteLength": 2189040,
      "byteOffset": 1137032,
      "byteStride": 12,
      "name": "floatBufferViews",
      "target": 34962
    }
  ],
  "buffers": [
    {
      "byteLength": 3326072,
      "uri": "scene.bin"
    }
  ],
  "images": [
    {
      "uri": "textures/TextureAtlas_1001_baseColor.png"
    }
  ],
  "materials": [
    {
      "doubleSided": true,
      "emissiveFactor": [
        0,
        0,
        0
      ],
      "name": "TextureAtlas_1001",
      "pbrMetallicRoughness": {
        "baseColorFactor": [
          1,
          1,
          1,
          1
        ],
        "baseColorTexture": {
          "index": 0,
          "texCoord": 0
        },
        "metallicFactor": 0,
        "roughnessFactor": 1
      }
    },
    {
      "doubleSided": true,
      "emissiveFactor": [
        0,
        0,
        0
      ],
      "name": "mat1",
      "pbrMetallicRoughness": {
        "baseColorFactor": [
          0.14080000000000001,
          0.14080000000000001,
          0.14080000000000001,
          1
        ],
        "metallicFactor": 0,
        "roughnessFactor": 0.9801118612097578
      }
    }
  ],
  "meshes": [
    {
      "primitives": [
        {
          "attributes": {
            "NORMAL": 1,
            "POSITION": 0,
            "TEXCOORD_0": 2
          },
          "indices": 3,
          "material": 0,
          "mode": 4
        }
      ]
    },
    {
      "primitives": [
        {
          "attributes": {
            "NORMAL": 5,
            "POSITION": 4,
            "TEXCOORD_0": 6
          },
          "indices": 7,
          "material": 0,
          "mode": 4
        }
      ]
    },
    {
      "primitives": [
        {
          "attributes": {
            "NORMAL": 9,
            "POSITION": 8,
            "TEXCOORD_0": 10
          },
          "indices": 11,
          "material": 1,
          "mode": 4
        }
      ]
    }
  ],
  "nodes": [
    {
      "children": [
        1
      ],
      "name": "RootNode (gltf orientation matrix)",
      "rotation": [
        -0.70710678118654746,
        -0,
        -0,
        0.70710678118654757
      ]
    },
    {
      "children": [
        2
      ],
      "name": "RootNode (model correction matrix)"
    },
    {
      "children": [
        3,
        4,
        5
      ],
      "name": "retas.obj.cleaner.materialmerger.gles"
    },
    {
      "mesh": 0,
      "name": ""
    },
    {
      "mesh": 1,
      "name": ""
    },
    {
      "mesh": 2,
      "name": ""
    }
  ],
  "samplers": [
    {
      "magFilter": 9729,
      "minFilter": 9987,
      "wrapS": 10497,
      "wrapT": 10497
    }
  ],
  "scene": 0,
  "scenes": [
    {
      "name": "OSG_Scene",
      "nodes": [
        0
      ]
    }
  ],
  "textures": [
    {
      "sampler": 0,
      "source": 0
    }
  ]
}

