{
  "accessors": [
    {
      "bufferView": 2,
      "componentType": 5126,
      "count": 65532,
      "max": [
        0.42704999446868896,
        0.61764299869537354,
        0.59887701272964478
      ],
      "min": [
        -0.54090499877929688,
        0.46422401070594788,
        -0.28929600119590759
      ],
      "type": "VEC3"
    },
    {
      "bufferView": 2,
      "byteOffset": 786384,
      "componentType": 5126,
      "count": 65532,
      "max": [
        0.99975436925888062,
        0.99998676776885986,
        0.99995547533035278
      ],
      "min": [
        -0.99984967708587646,
        -0.99994367361068726,
        -0.99988865852355957
      ],
      "type": "VEC3"
    },
    {
      "bufferView": 3,
      "componentType": 5126,
      "count": 65532,
      "max": [
        0.99998307228088379,
        0.99996751546859741,
        0.99999207258224487,
        1
      ],
      "min": [
        -0.99994552135467529,
        -0.99999958276748657,
        -0.99999529123306274,
        1
      ],
      "type": "VEC4"
    },
    {
      "bufferView": 1,
      "componentType": 5126,
      "count": 65532,
      "max": [
        0.99951201677322388,
        0.99951201677322388
      ],
      "min": [
        0.00048799999058246613,
        0.00048799999058246613
      ],
      "type": "VEC2"
    },
    {
      "bufferView": 0,
      "componentType": 5125,
      "count": 65532,
      "max": [
        65531
      ],
      "min": [
        0
      ],
      "type": "SCALAR"
    },
    {
      "bufferView": 2,
      "byteOffset": 1572768,
      "componentType": 5126,
      "count": 65532,
      "max": [
        0.52589899301528931,
        0.48232099413871765,
        0.75610202550888062
      ],
      "min": [
        -0.76525402069091797,
        0.31411400437355042,
        -0.46138098835945129
      ],
      "type": "VEC3"
    },
    {
      "bufferView": 2,
      "byteOffset": 2359152,
      "componentType": 5126,
      "count": 65532,
      "max": [
        0.99981510639190674,
        0.99996036291122437,
        0.99957400560379028
      ],
      "min": [
        -0.9995836615562439,
        -0.99974936246871948,
        -0.99931555986404419
      ],
      "type": "VEC3"
    },
    {
      "bufferView": 3,
      "byteOffset": 1048512,
      "componentType": 5126,
      "count": 65532,
      "max": [
        0.99998325109481812,
        0.99978160858154297,
        0.99999755620956421,
        1
      ],
      "min": [
        -0.99994820356369019,
        -0.99996113777160645,
        -0.99998277425765991,
        1
      ],
      "type": "VEC4"
    },
    {
      "bufferView": 1,
      "byteOffset": 524256,
      "componentType": 5126,
      "count": 65532,
      "max": [
        0.99951201677322388,
        0.99951201677322388
      ],
      "min": [
        0.00048799999058246613,
        0.00048799999058246613
      ],
      "type": "VEC2"
    },
    {
      "bufferView": 0,
      "byteOffset": 262128,
      "componentType": 5125,
      "count": 65532,
      "max": [
        65531
      ],
      "min": [
        0
      ],
      "type": "SCALAR"
    },
    {
      "bufferView": 2,
      "byteOffset": 3145536,
      "componentType": 5126,
      "count": 65532,
      "max": [
        0.65047699213027954,
        0.33641299605369568,
        0.91772401332855225
      ],
      "min": [
        -0.86606097221374512,
        0.15516899526119232,
        -0.57507097721099854
      ],
      "type": "VEC3"
    },
    {
      "bufferView": 2,
      "byteOffset": 3931920,
      "componentType": 5126,
      "count": 65532,
      "max": [
        0.9994475245475769,
        0.99995148181915283,
        0.9999459981918335
      ],
      "min": [
        -0.99959230422973633,
        -0.9994274377822876,
        -0.99974191188812256
      ],
      "type": "VEC3"
    },
    {
      "bufferView": 3,
      "byteOffset": 2097024,
      "componentType": 5126,
      "count": 65532,
      "max": [
        0.9999687671661377,
        0.99994176626205444,
        0.99995309114456177,
        1
      ],
      "min": [
        -0.99995023012161255,
        -0.99968767166137695,
        -0.99997234344482422,
        1
      ],
      "type": "VEC4"
    },
    {
      "bufferView": 1,
      "byteOffset": 1048512,
      "componentType": 5126,
      "count": 65532,
      "max": [
        0.99951201677322388,
        0.99951201677322388
      ],
      "min": [
        0.00048799999058246613,
        0.00048799999058246613
      ],
      "type": "VEC2"
    },
    {
      "bufferView": 0,
      "byteOffset": 524256,
      "componentType": 5125,
      "count": 65532,
      "max": [
        65531
      ],
      "min": [
        0
      ],
      "type": "SCALAR"
    },
    {
      "bufferView": 2,
      "byteOffset": 4718304,
      "componentType": 5126,
      "count": 65532,
      "max": [
        0.74146801233291626,
        0.18190200626850128,
        1.0414940118789673
      ],
      "min": [
        -0.970878005027771,
        -0.043030999600887299,
        -0.64168500900268555
      ],
      "type": "VEC3"
    },
    {
      "bufferView": 2,
      "byteOffset": 5504688,
      "componentType": 5126,
      "count": 65532,
      "max": [
        0.9970477819442749,
        0.99991786479949951,
        0.99986320734024048
      ],
      "min": [
        -0.99979418516159058,
        -0.99903160333633423,
        -0.99916362762451172
      ],
      "type": "VEC3"
    },
    {
      "bufferView": 3,
      "byteOffset": 3145536,
      "componentType": 5126,
      "count": 65532,
      "max": [
        0.99988818168640137,
        0.99981677532196045,
        0.99998182058334351,
        1
      ],
      "min": [
        -0.99998390674591064,
        -0.99980133771896362,
        -0.99996888637542725,
        1
      ],
      "type": "VEC4"
    },
    {
      "bufferView": 1,
      "byteOffset": 1572768,
      "componentType": 5126,
      "count": 65532,
      "max": [
        0.99951201677322388,
        0.99951201677322388
      ],
      "min": [
        0.00048799999058246613,
        0.00048799999058246613
      ],
      "type": "VEC2"
    },
    {
      "bufferView": 0,
      "byteOffset": 786384,
      "componentType": 5125,
      "count": 65532,
      "max": [
        65531
      ],
      "min": [
        0
      ],
      "type": "SCALAR"
    },
    {
      "bufferView": 2,
      "byteOffset": 6291072,
      "componentType": 5126,
      "count": 65532,
      "max": [
        0.76844602823257446,
        -0.013949000276625156,
        1.0755820274353027
      ],
      "min": [
        -1.0372240543365479,
        -0.29434299468994141,
        -0.66480797529220581
      ],
      "type": "VEC3"
    },
    {
      "bufferView": 2,
      "byteOffset": 7077456,
      "componentType": 5126,
      "count": 65532,
      "max": [
        0.99996501207351685,
        0.99914926290512085,
        0.99996781349182129
      ],
      "min": [
        -0.99996805191040039,
        -0.99508237838745117,
        -0.99995964765548706
      ],
      "type": "VEC3"
    },
    {
      "bufferView": 3,
      "byteOffset": 4194048,
      "componentType": 5126,
      "count": 65532,
      "max": [
        0.99998843669891357,
        0.99998611211776733,
        0.99977439641952515,
        1
      ],
      "min": [
        -0.99995237588882446,
        -0.9999614953994751,
        -0.99991369247436523,
        1
      ],
      "type": "VEC4"
    },
    {
      "bufferView": 1,
      "byteOffset": 2097024,
      "componentType": 5126,
      "count": 65532,
      "max": [
        0.99951201677322388,
        0.99379700422286987
      ],
      "min": [
        0.00048799999058246613,
        0.0011790000135079026
      ],
      "type": "VEC2"
    },
    {
      "bufferView": 0,
      "byteOffset": 1048512,
      "componentType": 5125,
      "count": 65532,
      "max": [
        65531
      ],
      "min": [
        0
      ],
      "type": "SCALAR"
    },
    {
      "bufferView": 2,
      "byteOffset": 7863840,
      "componentType": 5126,
      "count": 65532,
      "max": [
        0.76861697435379028,
        -0.26715201139450073,
        1.0767949819564819
      ],
      "min": [
        -1.0410490036010742,
        -0.54194998741149902,
        -0.66387301683425903
      ],
      "type": "VEC3"
    },
    {
      "bufferView": 2,
      "byteOffset": 8650224,
      "componentType": 5126,
      "count": 65532,
      "max": [
        0.99998193979263306,
        0.99681258201599121,
        0.9999660849571228
      ],
      "min": [
        -0.99991798400878906,
        -0.97249907255172729,
        -0.99936079978942871
      ],
      "type": "VEC3"
    },
    {
      "bufferView": 3,
      "byteOffset": 5242560,
      "componentType": 5126,
      "count": 65532,
      "max": [
        0.9998704195022583,
        0.99998879432678223,
        0.99983805418014526,
        1
      ],
      "min": [
        -0.999988853931427,
        -0.99998664855957031,
        -0.99996495246887207,
        1
      ],
      "type": "VEC4"
    },
    {
      "bufferView": 1,
      "byteOffset": 2621280,
      "componentType": 5126,
      "count": 65532,
      "max": [
        0.99951201677322388,
        0.98808300495147705
      ],
      "min": [
        0.00048799999058246613,
        0.00048799999058246613
      ],
      "type": "VEC2"
    },
    {
      "bufferView": 0,
      "byteOffset": 1310640,
      "componentType": 5125,
      "count": 65532,
      "max": [
        65531
      ],
      "min": [
        0
      ],
      "type": "SCALAR"
    },
    {
      "bufferView": 2,
      "byteOffset": 9436608,
      "componentType": 5126,
      "count": 65532,
      "max": [
        0.73448598384857178,
        -0.51461601257324219,
        1.0494680404663086
      ],
      "min": [
        -1.0035539865493774,
        -0.76178598403930664,
        -0.6067039966583252
      ],
      "type": "VEC3"
    },
    {
      "bufferView": 2,
      "byteOffset": 10222992,
      "componentType": 5126,
      "count": 65532,
      "max": [
        0.99967706203460693,
        0.9999350905418396,
        0.99912792444229126
      ],
      "min": [
        -0.99984622001647949,
        -0.99373102188110352,
        -0.99927204847335815
      ],
      "type": "VEC3"
    },
    {
      "bufferView": 3,
      "byteOffset": 6291072,
      "componentType": 5126,
      "count": 65532,
      "max": [
        0.99999600648880005,
        0.99997192621231079,
        0.99995803833007812,
        1
      ],
      "min": [
        -0.99999600648880005,
        -0.9997209906578064,
        -0.99999594688415527,
        1
      ],
      "type": "VEC4"
    },
    {
      "bufferView": 1,
      "byteOffset": 3145536,
      "componentType": 5126,
      "count": 65532,
      "max": [
        0.99951201677322388,
        0.98236900568008423
      ],
      "min": [
        0.00048799999058246613,
        0.00048799999058246613
      ],
      "type": "VEC2"
    },
    {
      "bufferView": 0,
      "byteOffset": 1572768,
      "componentType": 5125,
      "count": 65532,
      "max": [
        65531
      ],
      "min": [
        0
      ],
      "type": "SCALAR"
    },
    {
      "bufferView": 2,
      "byteOffset": 11009376,
      "componentType": 5126,
      "count": 65532,
      "max": [
        0.63670200109481812,
        -0.74008697271347046,
        0.96631598472595215
      ],
      "min": [
        -0.9132850170135498,
        -0.952659010887146,
        -0.47860398888587952
      ],
      "type": "VEC3"
    },
    {
      "bufferView": 2,
      "byteOffset": 11795760,
      "componentType": 5126,
      "count": 65532,
      "max": [
        0.99903959035873413,
        0.9994695782661438,
        0.99993795156478882
      ],
      "min": [
        -0.99744635820388794,
        -0.99947434663772583,
        -0.9997825026512146
      ],
      "type": "VEC3"
    },
    {
      "bufferView": 3,
      "byteOffset": 7339584,
      "componentType": 5126,
      "count": 65532,
      "max": [
        0.99998199939727783,
        0.99998992681503296,
        0.99996674060821533,
        1
      ],
      "min": [
        -0.99996304512023926,
        -0.99991917610168457,
        -0.99997866153717041,
        1
      ],
      "type": "VEC4"
    },
    {
      "bufferView": 1,
      "byteOffset": 3669792,
      "componentType": 5126,
      "count": 65532,
      "max": [
        0.99951201677322388,
        0.97665500640869141
      ],
      "min": [
        0.00048799999058246613,
        0.00048799999058246613
      ],
      "type": "VEC2"
    },
    {
      "bufferView": 0,
      "byteOffset": 1834896,
      "componentType": 5125,
      "count": 65532,
      "max": [
        65531
      ],
      "min": [
        0
      ],
      "type": "SCALAR"
    },
    {
      "bufferView": 2,
      "byteOffset": 12582144,
      "componentType": 5126,
      "count": 65532,
      "max": [
        0.45060700178146362,
        -0.93337798118591309,
        0.80724000930786133
      ],
      "min": [
        -0.75866401195526123,
        -1.1115150451660156,
        -0.36609199643135071
      ],
      "type": "VEC3"
    },
    {
      "bufferView": 2,
      "byteOffset": 13368528,
      "componentType": 5126,
      "count": 65532,
      "max": [
        0.99959474802017212,
        0.99772965908050537,
        0.9999961256980896
      ],
      "min": [
        -0.99964231252670288,
        -0.9999765157699585,
        -0.99962186813354492
      ],
      "type": "VEC3"
    },
    {
      "bufferView": 3,
      "byteOffset": 8388096,
      "componentType": 5126,
      "count": 65532,
      "max": [
        0.99999868869781494,
        0.99972152709960938,
        0.99987232685089111,
        1
      ],
      "min": [
        -0.9999966025352478,
        -0.99998289346694946,
        -0.99987250566482544,
        1
      ],
      "type": "VEC4"
    },
    {
      "bufferView": 1,
      "byteOffset": 4194048,
      "componentType": 5126,
      "count": 65532,
      "max": [
        0.99951201677322388,
        0.97665500640869141
      ],
      "min": [
        0.00048799999058246613,
        0.00048799999058246613
      ],
      "type": "VEC2"
    },
    {
      "bufferView": 0,
      "byteOffset": 2097024,
      "componentType": 5125,
      "count": 65532,
      "max": [
        65531
      ],
      "min": [
        0
      ],
      "type": "SCALAR"
    },
    {
      "bufferView": 2,
      "byteOffset": 14154912,
      "componentType": 5126,
      "count": 10194,
      "max": [
        0.22288399934768677,
        -1.0993160009384155,
        0.53369700908660889
      ],
      "min": [
        -0.48062598705291748,
        -1.1474000215530396,
        -0.017720999196171761
      ],
      "type": "VEC3"
    },
    {
      "bufferView": 2,
      "byteOffset": 14277240,
      "componentType": 5126,
      "count": 10194,
      "max": [
        0.99418258666992188,
        0.55169761180877686,
        0.89401412010192871
      ],
      "min": [
        -0.97216659784317017,
        -0.99996334314346313,
        -0.86093175411224365
      ],
      "type": "VEC3"
    },
    {
      "bufferView": 3,
      "byteOffset": 9436608,
      "componentType": 5126,
      "count": 10194,
      "max": [
        0.99993878602981567,
        0.93532371520996094,
        0.99985098838806152,
        1
      ],
      "min": [
        -0.99994295835494995,
        -0.97852516174316406,
        -0.99998354911804199,
        1
      ],
      "type": "VEC4"
    },
    {
      "bufferView": 1,
      "byteOffset": 4718304,
      "componentType": 5126,
      "count": 10194,
      "max": [
        0.99951201677322388,
        0.9709399938583374
      ],
      "min": [
        0.00048799999058246613,
        0.00048799999058246613
      ],
      "type": "VEC2"
    },
    {
      "bufferView": 0,
      "byteOffset": 2359152,
      "componentType": 5125,
      "count": 10194,
      "max": [
        10193
      ],
      "min": [
        0
      ],
      "type": "SCALAR"
    }
  ],
  "asset": {
    "extras": {
      "author": "Shiba Inu (https://sketchfab.com/shibainu)",
      "license": "CC-BY-NC-4.0 (http://creativecommons.org/licenses/by-nc/4.0/)",
      "source": "https://sketchfab.com/models/753bd244bec34bb48fb4d5565298bc2b",
      "title": "Onion With Skin"
    },
    "generator": "Sketchfab-3.18.7",
    "version": "2.0"
  },
  "bufferViews": [
    {
      "buffer": 0,
      "byteLength": 2399928,
      "byteOffset": 0,
      "name": "floatBufferViews",
      "target": 34963
    },
    {
      "buffer": 0,
      "byteLength": 4799856,
      "byteOffset": 2399928,
      "byteStride": 8,
      "name": "floatBufferViews",
      "target": 34962
    },
    {
      "buffer": 0,
      "byteLength": 14399568,
      "byteOffset": 7199784,
      "byteStride": 12,
      "name": "floatBufferViews",
      "target": 34962
    },
    {
      "buffer": 0,
      "byteLength": 9599712,
      "byteOffset": 21599352,
      "byteStride": 16,
      "name": "floatBufferViews",
      "target": 34962
    }
  ],
  "buffers": [
    {
      "byteLength": 31199064,
      "uri": "scene.bin"
    }
  ],
  "extensionsUsed": [
    "KHR_materials_unlit"
  ],
  "images": [
    {
      "uri": "textures/material_0_baseColor.png"
    }
  ],
  "materials": [
    {
      "doubleSided": true,
      "emissiveFactor": [
        0,
        0,
        0
      ],
      "extensions": {
        "KHR_materials_unlit": {}
      },
      "name": "material_0",
      "pbrMetallicRoughness": {
        "baseColorFactor": [
          1,
          1,
          1,
          1
        ],
        "baseColorTexture": {
          "index": 0,
          "texCoord": 0
        },
        "metallicFactor": 0,
        "roughnessFactor": 1
      }
    }
  ],
  "meshes": [
    {
      "primitives": [
        {
          "attributes": {
            "NORMAL": 1,
            "POSITION": 0,
            "TANGENT": 2,
            "TEXCOORD_0": 3
          },
          "indices": 4,
          "material": 0,
          "mode": 4
        }
      ]
    },
    {
      "primitives": [
        {
          "attributes": {
            "NORMAL": 6,
            "POSITION": 5,
            "TANGENT": 7,
            "TEXCOORD_0": 8
          },
          "indices": 9,
          "material": 0,
          "mode": 4
        }
      ]
    },
    {
      "primitives": [
        {
          "attributes": {
            "NORMAL": 11,
            "POSITION": 10,
            "TANGENT": 12,
            "TEXCOORD_0": 13
          },
          "indices": 14,
          "material": 0,
          "mode": 4
        }
      ]
    },
    {
      "primitives": [
        {
          "attributes": {
            "NORMAL": 16,
            "POSITION": 15,
            "TANGENT": 17,
            "TEXCOORD_0": 18
          },
          "indices": 19,
          "material": 0,
          "mode": 4
        }
      ]
    },
    {
      "primitives": [
        {
          "attributes": {
            "NORMAL": 21,
            "POSITION": 20,
            "TANGENT": 22,
            "TEXCOORD_0": 23
          },
          "indices": 24,
          "material": 0,
          "mode": 4
        }
      ]
    },
    {
      "primitives": [
        {
          "attributes": {
            "NORMAL": 26,
            "POSITION": 25,
            "TANGENT": 27,
            "TEXCOORD_0": 28
          },
          "indices": 29,
          "material": 0,
          "mode": 4
        }
      ]
    },
    {
      "primitives": [
        {
          "attributes": {
            "NORMAL": 31,
            "POSITION": 30,
            "TANGENT": 32,
            "TEXCOORD_0": 33
          },
          "indices": 34,
          "material": 0,
          "mode": 4
        }
      ]
    },
    {
      "primitives": [
        {
          "attributes": {
            "NORMAL": 36,
            "POSITION": 35,
            "TANGENT": 37,
            "TEXCOORD_0": 38
          },
          "indices": 39,
          "material": 0,
          "mode": 4
        }
      ]
    },
    {
      "primitives": [
        {
          "attributes": {
            "NORMAL": 41,
            "POSITION": 40,
            "TANGENT": 42,
            "TEXCOORD_0": 43
          },
          "indices": 44,
          "material": 0,
          "mode": 4
        }
      ]
    },
    {
      "primitives": [
        {
          "attributes": {
            "NORMAL": 46,
            "POSITION": 45,
            "TANGENT": 47,
            "TEXCOORD_0": 48
          },
          "indices": 49,
          "material": 0,
          "mode": 4
        }
      ]
    }
  ],
  "nodes": [
    {
      "children": [
        1
      ],
      "name": "RootNode (gltf orientation matrix)",
      "rotation": [
        -0.70710678118654746,
        -0,
        -0,
        0.70710678118654757
      ]
    },
    {
      "children": [
        2
      ],
      "matrix": [
        -0.89641714096069336,
        -0.15753237903118134,
        0.4142703115940094,
        0,
        -0.43817111849784851,
        0.45555669069290161,
        -0.77490270137786865,
        0,
        -0.066651344299316406,
        -0.87615734338760376,
        -0.47739493846893311,
        0,
        -0.36065682768821716,
        0.01481165736913681,
        0.15550747513771057,
        1
      ],
      "name": "RootNode (model correction matrix)"
    },
    {
      "children": [
        3,
        4,
        5,
        6,
        7,
        8,
        9,
        10,
        11,
        12
      ],
      "name": "mesh.obj.cleaner.materialmerger.gles"
    },
    {
      "mesh": 0,
      "name": ""
    },
    {
      "mesh": 1,
      "name": ""
    },
    {
      "mesh": 2,
      "name": ""
    },
    {
      "mesh": 3,
      "name": ""
    },
    {
      "mesh": 4,
      "name": ""
    },
    {
      "mesh": 5,
      "name": ""
    },
    {
      "mesh": 6,
      "name": ""
    },
    {
      "mesh": 7,
      "name": ""
    },
    {
      "mesh": 8,
      "name": ""
    },
    {
      "mesh": 9,
      "name": ""
    }
  ],
  "samplers": [
    {
      "magFilter": 9729,
      "minFilter": 9987,
      "wrapS": 10497,
      "wrapT": 10497
    }
  ],
  "scene": 0,
  "scenes": [
    {
      "name": "OSG_Scene",
      "nodes": [
        0
      ]
    }
  ],
  "textures": [
    {
      "sampler": 0,
      "source": 0
    }
  ]
}

