{
  "accessors": [
    {
      "bufferView": 1,
      "componentType": 5126,
      "count": 439,
      "max": [
        5.632145881652832,
        5.6321492195129395,
        11.970231056213379
      ],
      "min": [
        -5.6321468353271484,
        -5.6321468353271484,
        2.195702075958252
      ],
      "type": "VEC3"
    },
    {
      "bufferView": 1,
      "byteOffset": 5268,
      "componentType": 5126,
      "count": 439,
      "max": [
        1,
        1,
        1
      ],
      "min": [
        -1,
        -1,
        -1
      ],
      "type": "VEC3"
    },
    {
      "bufferView": 2,
      "componentType": 5126,
      "count": 439,
      "max": [
        1,
        0.99998980760574341,
        0.29101398587226868,
        1
      ],
      "min": [
        -0.99999892711639404,
        -0.99997353553771973,
        -0.2043604850769043,
        1
      ],
      "type": "VEC4"
    },
    {
      "bufferView": 0,
      "componentType": 5125,
      "count": 2280,
      "max": [
        438
      ],
      "min": [
        0
      ],
      "type": "SCALAR"
    },
    {
      "bufferView": 1,
      "byteOffset": 10536,
      "componentType": 5126,
      "count": 60,
      "max": [
        3.2395460605621338,
        3.7045331001281738,
        12.577287673950195
      ],
      "min": [
        -3.4074409008026123,
        -3.1705710887908936,
        11.984469413757324
      ],
      "type": "VEC3"
    },
    {
      "bufferView": 1,
      "byteOffset": 11256,
      "componentType": 5126,
      "count": 60,
      "max": [
        0.26371610164642334,
        0.24707211554050446,
        1
      ],
      "min": [
        -0.24985314905643463,
        -0.27039512991905212,
        0.96274936199188232
      ],
      "type": "VEC3"
    },
    {
      "bufferView": 2,
      "byteOffset": 7024,
      "componentType": 5126,
      "count": 60,
      "max": [
        1,
        0.97529804706573486,
        1.7646945025262539e-06,
        1
      ],
      "min": [
        -0.91374361515045166,
        -0.92403197288513184,
        -1.1072304459958104e-06,
        1
      ],
      "type": "VEC4"
    },
    {
      "bufferView": 0,
      "byteOffset": 9120,
      "componentType": 5125,
      "count": 180,
      "max": [
        59
      ],
      "min": [
        0
      ],
      "type": "SCALAR"
    },
    {
      "bufferView": 1,
      "byteOffset": 11976,
      "componentType": 5126,
      "count": 50,
      "max": [
        0.53117597103118896,
        0.53117597103118896,
        12.989644050598145
      ],
      "min": [
        -0.53117597103118896,
        -0.53117597103118896,
        11.792377471923828
      ],
      "type": "VEC3"
    },
    {
      "bufferView": 1,
      "byteOffset": 12576,
      "componentType": 5126,
      "count": 50,
      "max": [
        0.92387974262237549,
        0.92387974262237549,
        1
      ],
      "min": [
        -0.92387974262237549,
        -0.92387974262237549,
        -1
      ],
      "type": "VEC3"
    },
    {
      "bufferView": 2,
      "byteOffset": 7984,
      "componentType": 5126,
      "count": 50,
      "max": [
        0.92387980222702026,
        0.92387980222702026,
        0,
        1
      ],
      "min": [
        -1,
        -0.92387980222702026,
        0,
        1
      ],
      "type": "VEC4"
    },
    {
      "bufferView": 0,
      "byteOffset": 9840,
      "componentType": 5125,
      "count": 96,
      "max": [
        49
      ],
      "min": [
        0
      ],
      "type": "SCALAR"
    }
  ],
  "asset": {
    "extras": {
      "author": "mhutzenbuhler (https://sketchfab.com/mhutzenbuhler)",
      "license": "CC-BY-4.0 (http://creativecommons.org/licenses/by/4.0/)",
      "source": "https://sketchfab.com/models/017eaa0c64f749dfbf60e16c67ebd421",
      "title": "A Tomato"
    },
    "generator": "Sketchfab-3.22.13",
    "version": "2.0"
  },
  "bufferViews": [
    {
      "buffer": 0,
      "byteLength": 10224,
      "byteOffset": 0,
      "name": "floatBufferViews",
      "target": 34963
    },
    {
      "buffer": 0,
      "byteLength": 13176,
      "byteOffset": 10224,
      "byteStride": 12,
      "name": "floatBufferViews",
      "target": 34962
    },
    {
      "buffer": 0,
      "byteLength": 8784,
      "byteOffset": 23400,
      "byteStride": 16,
      "name": "floatBufferViews",
      "target": 34962
    }
  ],
  "buffers": [
    {
      "byteLength": 32184,
      "uri": "scene.bin"
    }
  ],
  "materials": [
    {
      "doubleSided": true,
      "emissiveFactor": [
        0,
        0,
        0
      ],
      "name": "lambert2SG",
      "pbrMetallicRoughness": {
        "baseColorFactor": [
          0.0037418826,
          0.087564621400000001,
          0.0147347889,
          1
        ],
        "metallicFactor": 0,
        "roughnessFactor": 0.59999999999999998
      }
    },
    {
      "doubleSided": true,
      "emissiveFactor": [
        0,
        0,
        0
      ],
      "name": "lambert3SG",
      "pbrMetallicRoughness": {
        "baseColorFactor": [
          0.0012623088,
          0.038587538800000001,
          0.0027730052999999999,
          1
        ],
        "metallicFactor": 0,
        "roughnessFactor": 0.59999999999999998
      }
    },
    {
      "doubleSided": true,
      "emissiveFactor": [
        0,
        0,
        0
      ],
      "name": "lambert4SG",
      "pbrMetallicRoughness": {
        "baseColorFactor": [
          1,
          0,
          0,
          1
        ],
        "metallicFactor": 0,
        "roughnessFactor": 0.15415396340000001
      }
    }
  ],
  "meshes": [
    {
      "primitives": [
        {
          "attributes": {
            "NORMAL": 1,
            "POSITION": 0,
            "TANGENT": 2
          },
          "indices": 3,
          "material": 2,
          "mode": 4
        }
      ]
    },
    {
      "primitives": [
        {
          "attributes": {
            "NORMAL": 5,
            "POSITION": 4,
            "TANGENT": 6
          },
          "indices": 7,
          "material": 0,
          "mode": 4
        }
      ]
    },
    {
      "primitives": [
        {
          "attributes": {
            "NORMAL": 9,
            "POSITION": 8,
            "TANGENT": 10
          },
          "indices": 11,
          "material": 1,
          "mode": 4
        }
      ]
    }
  ],
  "nodes": [
    {
      "children": [
        1
      ],
      "name": "RootNode (gltf orientation matrix)",
      "rotation": [
        -0.70710678118654746,
        -0,
        -0,
        0.70710678118654757
      ]
    },
    {
      "children": [
        2
      ],
      "name": "RootNode (model correction matrix)"
    },
    {
      "children": [
        3,
        4,
        5
      ],
      "name": "4c4dc9924e03469ab8485c3fabbcda9d.obj.cleaner.materialmerger.gles"
    },
    {
      "mesh": 0,
      "name": ""
    },
    {
      "mesh": 1,
      "name": ""
    },
    {
      "mesh": 2,
      "name": ""
    }
  ],
  "scene": 0,
  "scenes": [
    {
      "name": "OSG_Scene",
      "nodes": [
        0
      ]
    }
  ]
}

