{
  "accessors": [
    {
      "bufferView": 2,
      "componentType": 5126,
      "count": 3448,
      "max": [
        0.048964101821184158,
        0.20930799841880798,
        0.033518198877573013
      ],
      "min": [
        -0.048994001001119614,
        2.4532801035093144e-06,
        -0.033445399254560471
      ],
      "type": "VEC3"
    },
    {
      "bufferView": 2,
      "byteOffset": 41376,
      "componentType": 5126,
      "count": 3448,
      "max": [
        0.99997830390930176,
        0.99947887659072876,
        0.99999868869781494
      ],
      "min": [
        -0.99999827146530151,
        -1,
        -0.99998021125793457
      ],
      "type": "VEC3"
    },
    {
      "bufferView": 3,
      "componentType": 5126,
      "count": 3448,
      "max": [
        0.94643300771713257,
        0.99561107158660889,
        0.99999868869781494,
        1
      ],
      "min": [
        -0.99322503805160522,
        -0.99997007846832275,
        -0.99943500757217407,
        1
      ],
      "type": "VEC4"
    },
    {
      "bufferView": 3,
      "byteOffset": 55168,
      "componentType": 5126,
      "count": 3448,
      "max": [
        1,
        1,
        1,
        1
      ],
      "min": [
        1,
        1,
        1,
        1
      ],
      "type": "VEC4"
    },
    {
      "bufferView": 1,
      "componentType": 5126,
      "count": 3448,
      "max": [
        0.99784302711486816,
        0.99626022577285767
      ],
      "min": [
        0.00097465887665748596,
        0.00097465887665748596
      ],
      "type": "VEC2"
    },
    {
      "bufferView": 1,
      "byteOffset": 27584,
      "componentType": 5126,
      "count": 3448,
      "max": [
        0.99784302711486816,
        0.99626022577285767
      ],
      "min": [
        0.00097465887665748596,
        0.00097465887665748596
      ],
      "type": "VEC2"
    },
    {
      "bufferView": 0,
      "componentType": 5125,
      "count": 18024,
      "max": [
        3447
      ],
      "min": [
        0
      ],
      "type": "SCALAR"
    }
  ],
  "asset": {
    "extras": {
      "author": "David Wigforss (https://sketchfab.com/dwigfor)",
      "license": "CC-BY-NC-4.0 (http://creativecommons.org/licenses/by-nc/4.0/)",
      "source": "https://sketchfab.com/3d-models/yellow-mustard-first-street-1c6b102d35234ab0bfc529d166e64c5a",
      "title": "Yellow Mustard (First Street)"
    },
    "generator": "Sketchfab-5.84.2",
    "version": "2.0"
  },
  "bufferViews": [
    {
      "buffer": 0,
      "byteLength": 72096,
      "byteOffset": 0,
      "name": "floatBufferViews",
      "target": 34963
    },
    {
      "buffer": 0,
      "byteLength": 55168,
      "byteOffset": 72096,
      "byteStride": 8,
      "name": "floatBufferViews",
      "target": 34962
    },
    {
      "buffer": 0,
      "byteLength": 82752,
      "byteOffset": 127264,
      "byteStride": 12,
      "name": "floatBufferViews",
      "target": 34962
    },
    {
      "buffer": 0,
      "byteLength": 110336,
      "byteOffset": 210016,
      "byteStride": 16,
      "name": "floatBufferViews",
      "target": 34962
    }
  ],
  "buffers": [
    {
      "byteLength": 320352,
      "uri": "scene.bin"
    }
  ],
  "images": [
    {
      "uri": "textures/MAT_Condiment_Mustard_FirstStYellowMustard_baseColor.jpeg"
    },
    {
      "uri": "textures/MAT_Condiment_Mustard_FirstStYellowMustard_normal.png"
    }
  ],
  "materials": [
    {
      "doubleSided": true,
      "emissiveFactor": [
        0,
        0,
        0
      ],
      "name": "MAT_Condiment_Mustard_FirstStYellowMustard",
      "normalTexture": {
        "index": 1,
        "scale": 1,
        "texCoord": 0
      },
      "pbrMetallicRoughness": {
        "baseColorFactor": [
          1,
          1,
          1,
          1
        ],
        "baseColorTexture": {
          "index": 0,
          "texCoord": 0
        },
        "metallicFactor": 0,
        "roughnessFactor": 0.95770514946237739
      }
    }
  ],
  "meshes": [
    {
      "name": "geo1_MAT_Condiment_Mustard_FirstStYellowMustard_0",
      "primitives": [
        {
          "attributes": {
            "COLOR_0": 3,
            "NORMAL": 1,
            "POSITION": 0,
            "TANGENT": 2,
            "TEXCOORD_0": 4,
            "TEXCOORD_1": 5
          },
          "indices": 6,
          "material": 0,
          "mode": 4
        }
      ]
    }
  ],
  "nodes": [
    {
      "children": [
        1
      ],
      "name": "RootNode (gltf orientation matrix)",
      "rotation": [
        -0.70710678118654746,
        -0,
        -0,
        0.70710678118654757
      ]
    },
    {
      "children": [
        2
      ],
      "name": "RootNode (model correction matrix)"
    },
    {
      "children": [
        3
      ],
      "matrix": [
        1,
        0,
        0,
        0,
        0,
        0,
        1,
        0,
        0,
        -1,
        0,
        0,
        0,
        0,
        0,
        1
      ],
      "name": "mesh.fbx"
    },
    {
      "children": [
        4
      ],
      "name": "RootNode"
    },
    {
      "children": [
        5
      ],
      "name": "geo1"
    },
    {
      "mesh": 0,
      "name": "geo1_MAT_Condiment_Mustard_FirstStYellowMustard_0"
    }
  ],
  "samplers": [
    {
      "magFilter": 9729,
      "minFilter": 9987,
      "wrapS": 10497,
      "wrapT": 10497
    }
  ],
  "scene": 0,
  "scenes": [
    {
      "name": "OSG_Scene",
      "nodes": [
        0
      ]
    }
  ],
  "textures": [
    {
      "sampler": 0,
      "source": 0
    },
    {
      "sampler": 0,
      "source": 1
    }
  ]
}

